<svg width="128" height="128" viewBox="0 0 128 128" fill="none" xmlns="http://www.w3.org/2000/svg">
<path d="M69.3333 112H28C21.3707 112 16 106.629 16 100V43.4133C16 41.792 16.3307 40.1867 16.9653 38.6987L23.552 23.2853C25.4453 18.8693 29.7813 16 34.5867 16H93.408C98.2133 16 102.555 18.8693 104.443 23.2853L111.029 38.6987C111.669 40.192 112 41.792 112 43.4133V64" stroke="#BDBDBD" stroke-width="4" stroke-linecap="round" stroke-linejoin="round"/>
<path d="M64.0002 16V42.64" stroke="#BDBDBD" stroke-width="4" stroke-linecap="round" stroke-linejoin="round"/>
<path d="M111.941 42.6667H16" stroke="#BDBDBD" stroke-width="4" stroke-linecap="round" stroke-linejoin="round"/>
<path d="M32 90.6667H42.6667" stroke="#BDBDBD" stroke-width="4" stroke-linecap="round" stroke-linejoin="round"/>
<path d="M107.312 79.36C113.563 85.6107 113.563 95.7387 107.312 101.984C101.061 108.235 90.9333 108.235 84.688 101.984C78.4373 95.7333 78.4373 85.6053 84.688 79.36C90.9387 73.1147 101.067 73.1093 107.312 79.36" stroke="#BDBDBD" stroke-width="4" stroke-linecap="round" stroke-linejoin="round"/>
<path d="M117.333 112L107.312 101.984" stroke="#BDBDBD" stroke-width="4" stroke-linecap="round" stroke-linejoin="round"/>
</svg>
