<svg width="128" height="128" viewBox="0 0 128 128" fill="none" xmlns="http://www.w3.org/2000/svg">
<path d="M37.7494 116.309C52.1921 116.309 63.9041 104.597 63.9041 90.1547C63.9041 75.712 52.1974 64 37.7494 64C23.3014 64 11.5947 75.712 11.5947 90.1547" stroke="#BDBDBD" stroke-width="4" stroke-linecap="round" stroke-linejoin="round"/>
<path d="M37.7758 116.336C33.8398 116.336 30.1118 115.467 26.7625 113.915L10.6665 117.333L14.0318 101.205C12.4692 97.8453 11.5945 94.1013 11.5945 90.1547" stroke="#BDBDBD" stroke-width="4" stroke-linecap="round" stroke-linejoin="round"/>
<path d="M34.9707 64.1493C33.0613 59.7706 32 54.9973 32 49.9893C32 28.5653 51.1893 11.376 74.6667 11.376C98.144 11.376 117.333 28.5653 117.333 49.9893C117.333 62.6506 110.603 73.7973 100.272 80.8266C100.277 84.8586 100.267 90.2933 100.267 96L83.5253 87.7546C80.6613 88.304 77.7013 88.6026 74.6667 88.6026C70.896 88.6026 67.2373 88.1546 63.7493 87.3173" stroke="#BDBDBD" stroke-width="4" stroke-linecap="round" stroke-linejoin="round"/>
</svg>
